<?xml version="1.0" encoding="UTF-8" standalone="no"?>
<!DOCTYPE svg PUBLIC "-//W3C//DTD SVG 1.1//EN"
 "http://www.w3.org/Graphics/SVG/1.1/DTD/svg11.dtd">
<!-- Generated by graphviz version 2.38.0 (20140413.2041)
 -->
<!-- Title: systemd Pages: 1 -->
<svg width="1528pt" height="404pt"
 viewBox="0.00 0.00 1527.53 404.00" xmlns="http://www.w3.org/2000/svg" xmlns:xlink="http://www.w3.org/1999/xlink">
<g id="graph0" class="graph" transform="scale(1 1) rotate(0) translate(4 400)">
<title>systemd</title>
<polygon fill="white" stroke="none" points="-4,4 -4,-400 1523.53,-400 1523.53,4 -4,4"/>
<!-- shutdown.target -->
<g id="node1" class="node"><title>shutdown.target</title>
<ellipse fill="none" stroke="black" cx="763.49" cy="-378" rx="87.9851" ry="18"/>
<text text-anchor="middle" x="763.49" y="-374.3" font-family="Times,serif" font-size="14.00">shutdown.target</text>
</g>
<!-- postgresql.service -->
<g id="node2" class="node"><title>postgresql.service</title>
<ellipse fill="none" stroke="black" cx="966.49" cy="-306" rx="96.6831" ry="18"/>
<text text-anchor="middle" x="966.49" y="-302.3" font-family="Times,serif" font-size="14.00">postgresql.service</text>
</g>
<!-- shutdown.target&#45;&gt;postgresql.service -->
<g id="edge1" class="edge"><title>shutdown.target&#45;&gt;postgresql.service</title>
<path fill="none" stroke="red" d="M801.86,-361.811C831.956,-350.978 874.218,-336.37 908.428,-324.959"/>
<polygon fill="red" stroke="red" points="909.917,-328.153 918.304,-321.68 907.711,-321.509 909.917,-328.153"/>
</g>
<!-- yap&#45;queue.target -->
<g id="node3" class="node"><title>yap&#45;queue.target</title>
<ellipse fill="none" stroke="black" cx="580.49" cy="-234" rx="90.1842" ry="18"/>
<text text-anchor="middle" x="580.49" y="-230.3" font-family="Times,serif" font-size="14.00">yap&#45;queue.target</text>
</g>
<!-- shutdown.target&#45;&gt;yap&#45;queue.target -->
<g id="edge2" class="edge"><title>shutdown.target&#45;&gt;yap&#45;queue.target</title>
<path fill="none" stroke="red" d="M730.682,-361.251C713.625,-351.069 692.985,-337.283 675.49,-324 648.208,-303.287 618.678,-277.684 599.687,-259.263"/>
<polygon fill="red" stroke="red" points="602.03,-256.658 592.47,-252.091 597.095,-261.623 602.03,-256.658"/>
</g>
<!-- yap&#45;queue@1.service -->
<g id="node4" class="node"><title>yap&#45;queue@1.service</title>
<ellipse fill="none" stroke="black" cx="110.49" cy="-162" rx="110.48" ry="18"/>
<text text-anchor="middle" x="110.49" y="-158.3" font-family="Times,serif" font-size="14.00">yap&#45;queue@1.service</text>
</g>
<!-- shutdown.target&#45;&gt;yap&#45;queue@1.service -->
<g id="edge3" class="edge"><title>shutdown.target&#45;&gt;yap&#45;queue@1.service</title>
<path fill="none" stroke="red" d="M701.641,-365.216C656.439,-355.402 594.106,-340.418 540.49,-324 396.825,-280.008 231.427,-215.471 154.217,-183.092"/>
<polygon fill="red" stroke="red" points="155.377,-179.782 144.803,-179.118 152.655,-186.231 155.377,-179.782"/>
</g>
<!-- yap&#45;queue@3.service -->
<g id="node5" class="node"><title>yap&#45;queue@3.service</title>
<ellipse fill="none" stroke="black" cx="588.49" cy="-162" rx="110.48" ry="18"/>
<text text-anchor="middle" x="588.49" y="-158.3" font-family="Times,serif" font-size="14.00">yap&#45;queue@3.service</text>
</g>
<!-- shutdown.target&#45;&gt;yap&#45;queue@3.service -->
<g id="edge4" class="edge"><title>shutdown.target&#45;&gt;yap&#45;queue@3.service</title>
<path fill="none" stroke="red" d="M752.999,-360.054C738.638,-328.456 712.286,-259.786 670.49,-216 658.363,-203.296 642.524,-192.663 627.942,-184.336"/>
<polygon fill="red" stroke="red" points="629.517,-181.208 619.069,-179.451 626.141,-187.34 629.517,-181.208"/>
</g>
<!-- yap&#45;queue@4.service -->
<g id="node6" class="node"><title>yap&#45;queue@4.service</title>
<ellipse fill="none" stroke="black" cx="827.49" cy="-162" rx="110.48" ry="18"/>
<text text-anchor="middle" x="827.49" y="-158.3" font-family="Times,serif" font-size="14.00">yap&#45;queue@4.service</text>
</g>
<!-- shutdown.target&#45;&gt;yap&#45;queue@4.service -->
<g id="edge5" class="edge"><title>shutdown.target&#45;&gt;yap&#45;queue@4.service</title>
<path fill="none" stroke="red" d="M758.729,-359.903C756.703,-329.773 762.381,-265.707 782.49,-216 786.432,-206.256 792.37,-196.483 798.745,-188.032"/>
<polygon fill="red" stroke="red" points="801.622,-190.04 805.208,-180.07 796.188,-185.628 801.622,-190.04"/>
</g>
<!-- yap&#45;queue@2.service -->
<g id="node7" class="node"><title>yap&#45;queue@2.service</title>
<ellipse fill="none" stroke="black" cx="349.49" cy="-162" rx="110.48" ry="18"/>
<text text-anchor="middle" x="349.49" y="-158.3" font-family="Times,serif" font-size="14.00">yap&#45;queue@2.service</text>
</g>
<!-- shutdown.target&#45;&gt;yap&#45;queue@2.service -->
<g id="edge6" class="edge"><title>shutdown.target&#45;&gt;yap&#45;queue@2.service</title>
<path fill="none" stroke="red" d="M719.946,-362.247C693.226,-351.79 658.673,-337.309 628.49,-324 558.619,-293.192 539.029,-289.466 472.49,-252 436.728,-231.863 398.041,-205.143 373.611,-186.251"/>
<polygon fill="red" stroke="red" points="375.61,-183.37 365.593,-179.919 371.272,-188.863 375.61,-183.37"/>
</g>
<!-- taiga.service -->
<g id="node8" class="node"><title>taiga.service</title>
<ellipse fill="none" stroke="black" cx="871.49" cy="-234" rx="70.6878" ry="18"/>
<text text-anchor="middle" x="871.49" y="-230.3" font-family="Times,serif" font-size="14.00">taiga.service</text>
</g>
<!-- shutdown.target&#45;&gt;taiga.service -->
<g id="edge7" class="edge"><title>shutdown.target&#45;&gt;taiga.service</title>
<path fill="none" stroke="red" d="M771.933,-359.871C788.288,-334.896 823.466,-288.346 847.459,-259.678"/>
<polygon fill="red" stroke="red" points="850.392,-261.632 854.208,-251.748 845.061,-257.095 850.392,-261.632"/>
</g>
<!-- nginx.service -->
<g id="node9" class="node"><title>nginx.service</title>
<ellipse fill="none" stroke="black" cx="1273.49" cy="-162" rx="73.387" ry="18"/>
<text text-anchor="middle" x="1273.49" y="-158.3" font-family="Times,serif" font-size="14.00">nginx.service</text>
</g>
<!-- shutdown.target&#45;&gt;nginx.service -->
<g id="edge8" class="edge"><title>shutdown.target&#45;&gt;nginx.service</title>
<path fill="none" stroke="red" d="M842.861,-370.313C976.743,-357.472 1237.79,-323.998 1290.49,-252 1303.99,-233.554 1294.51,-208.186 1284.93,-189.252"/>
<polygon fill="red" stroke="red" points="1287.95,-187.471 1280.18,-180.271 1281.76,-190.746 1287.95,-187.471"/>
</g>
<!-- php7.1&#45;fpm.service -->
<g id="node10" class="node"><title>php7.1&#45;fpm.service</title>
<ellipse fill="none" stroke="black" cx="1377.49" cy="-90" rx="100.983" ry="18"/>
<text text-anchor="middle" x="1377.49" y="-86.3" font-family="Times,serif" font-size="14.00">php7.1&#45;fpm.service</text>
</g>
<!-- shutdown.target&#45;&gt;php7.1&#45;fpm.service -->
<g id="edge9" class="edge"><title>shutdown.target&#45;&gt;php7.1&#45;fpm.service</title>
<path fill="none" stroke="red" d="M846.414,-371.871C957.434,-364.424 1147.81,-348.743 1213.49,-324 1266.1,-304.182 1282.4,-295.922 1317.49,-252 1349.25,-212.245 1361.39,-152.4 1368.71,-117.974"/>
<polygon fill="red" stroke="red" points="1372.14,-118.672 1370.85,-108.157 1365.3,-117.184 1372.14,-118.672"/>
</g>
<!-- postgresql.service&#45;&gt;shutdown.target -->
<g id="edge18" class="edge"><title>postgresql.service&#45;&gt;shutdown.target</title>
<path fill="none" stroke="red" d="M927.065,-322.569C896.639,-333.506 854.242,-348.15 820.194,-359.494"/>
<polygon fill="red" stroke="red" points="818.765,-356.28 810.375,-362.75 820.968,-362.925 818.765,-356.28"/>
</g>
<!-- postgresql.service&#45;&gt;yap&#45;queue.target -->
<g id="edge15" class="edge"><title>postgresql.service&#45;&gt;yap&#45;queue.target</title>
<path fill="none" stroke="#a8a8a8" d="M899.695,-292.887C831.517,-280.523 725.925,-261.374 655.059,-248.523"/>
<polygon fill="#a8a8a8" stroke="#a8a8a8" points="655.328,-245.015 644.864,-246.674 654.079,-251.902 655.328,-245.015"/>
</g>
<!-- postgresql.service&#45;&gt;taiga.service -->
<g id="edge14" class="edge"><title>postgresql.service&#45;&gt;taiga.service</title>
<path fill="none" stroke="#a8a8a8" d="M943.977,-288.411C931.345,-279.103 915.417,-267.367 901.712,-257.268"/>
<polygon fill="#a8a8a8" stroke="#a8a8a8" points="903.641,-254.343 893.515,-251.228 899.489,-259.978 903.641,-254.343"/>
</g>
<!-- basic.target -->
<g id="node12" class="node"><title>basic.target</title>
<ellipse fill="none" stroke="black" cx="949.49" cy="-18" rx="66.8882" ry="18"/>
<text text-anchor="middle" x="949.49" y="-14.3" font-family="Times,serif" font-size="14.00">basic.target</text>
</g>
<!-- postgresql.service&#45;&gt;basic.target -->
<g id="edge13" class="edge"><title>postgresql.service&#45;&gt;basic.target</title>
<path fill="none" stroke="black" d="M969.792,-287.739C978.474,-240.896 1000.42,-112.213 987.49,-72 984.216,-61.814 978.181,-51.9261 971.87,-43.5042"/>
<polygon fill="black" stroke="black" points="974.538,-41.2368 965.558,-35.6142 969.072,-45.6095 974.538,-41.2368"/>
</g>
<!-- postgresql@9.4&#45;main.service -->
<g id="node13" class="node"><title>postgresql@9.4&#45;main.service</title>
<ellipse fill="none" stroke="black" cx="1144.49" cy="-234" rx="146.474" ry="18"/>
<text text-anchor="middle" x="1144.49" y="-230.3" font-family="Times,serif" font-size="14.00">postgresql@9.4&#45;main.service</text>
</g>
<!-- postgresql.service&#45;&gt;postgresql@9.4&#45;main.service -->
<g id="edge16" class="edge"><title>postgresql.service&#45;&gt;postgresql@9.4&#45;main.service</title>
<path fill="none" stroke="#a8a8a8" d="M1005.99,-289.465C1031.74,-279.34 1065.59,-266.029 1093.38,-255.101"/>
<polygon fill="#a8a8a8" stroke="#a8a8a8" points="1094.9,-258.261 1102.93,-251.344 1092.34,-251.747 1094.9,-258.261"/>
</g>
<!-- system.slice -->
<g id="node14" class="node"><title>system.slice</title>
<ellipse fill="none" stroke="black" cx="1312.49" cy="-18" rx="68.4888" ry="18"/>
<text text-anchor="middle" x="1312.49" y="-14.3" font-family="Times,serif" font-size="14.00">system.slice</text>
</g>
<!-- postgresql.service&#45;&gt;system.slice -->
<g id="edge17" class="edge"><title>postgresql.service&#45;&gt;system.slice</title>
<path fill="none" stroke="#a8a8a8" d="M1063.07,-304.145C1191.67,-296.899 1411.72,-261.478 1487.49,-108 1494.57,-93.6531 1497.02,-84.8492 1487.49,-72 1465.01,-41.7067 1425.7,-28.1169 1390.02,-22.2508"/>
<polygon fill="#a8a8a8" stroke="#a8a8a8" points="1390.47,-18.7797 1380.07,-20.7936 1389.46,-25.7058 1390.47,-18.7797"/>
</g>
<!-- yap&#45;queue.target&#45;&gt;shutdown.target -->
<g id="edge28" class="edge"><title>yap&#45;queue.target&#45;&gt;shutdown.target</title>
<path fill="none" stroke="red" d="M604.91,-251.421C627.669,-269.805 662.071,-300.146 693.49,-324 707.41,-334.568 723.321,-345.455 736.562,-354.592"/>
<polygon fill="red" stroke="red" points="734.617,-357.503 744.83,-360.323 738.605,-351.75 734.617,-357.503"/>
</g>
<!-- yap&#45;queue.target&#45;&gt;yap&#45;queue@1.service -->
<g id="edge27" class="edge"><title>yap&#45;queue.target&#45;&gt;yap&#45;queue@1.service</title>
<path fill="none" stroke="#a8a8a8" d="M510.38,-222.558C427.505,-210.215 289.475,-189.657 199.225,-176.216"/>
<polygon fill="#a8a8a8" stroke="#a8a8a8" points="199.688,-172.746 189.282,-174.735 198.657,-179.67 199.688,-172.746"/>
</g>
<!-- yap&#45;queue.target&#45;&gt;yap&#45;queue@3.service -->
<g id="edge26" class="edge"><title>yap&#45;queue.target&#45;&gt;yap&#45;queue@3.service</title>
<path fill="none" stroke="#a8a8a8" d="M582.468,-215.697C583.349,-207.983 584.409,-198.712 585.392,-190.112"/>
<polygon fill="#a8a8a8" stroke="#a8a8a8" points="588.877,-190.437 586.535,-180.104 581.922,-189.642 588.877,-190.437"/>
</g>
<!-- yap&#45;queue.target&#45;&gt;yap&#45;queue@4.service -->
<g id="edge25" class="edge"><title>yap&#45;queue.target&#45;&gt;yap&#45;queue@4.service</title>
<path fill="none" stroke="#a8a8a8" d="M630.177,-218.919C669.042,-207.904 723.312,-192.524 765.101,-180.681"/>
<polygon fill="#a8a8a8" stroke="#a8a8a8" points="766.23,-183.999 774.896,-177.905 764.321,-177.264 766.23,-183.999"/>
</g>
<!-- yap&#45;queue.target&#45;&gt;yap&#45;queue@2.service -->
<g id="edge24" class="edge"><title>yap&#45;queue.target&#45;&gt;yap&#45;queue@2.service</title>
<path fill="none" stroke="#a8a8a8" d="M532.907,-218.581C497.141,-207.743 447.899,-192.821 409.442,-181.167"/>
<polygon fill="#a8a8a8" stroke="#a8a8a8" points="409.993,-177.677 399.408,-178.126 407.963,-184.376 409.993,-177.677"/>
</g>
<!-- yap&#45;queue@1.service&#45;&gt;shutdown.target -->
<g id="edge44" class="edge"><title>yap&#45;queue@1.service&#45;&gt;shutdown.target</title>
<path fill="none" stroke="red" d="M153.852,-178.642C233.441,-209.206 407.904,-277.889 558.49,-324 605.486,-338.391 659.18,-351.68 699.892,-361.352"/>
<polygon fill="red" stroke="red" points="699.149,-364.772 709.686,-363.669 700.76,-357.961 699.149,-364.772"/>
</g>
<!-- yap&#45;queue@1.service&#45;&gt;basic.target -->
<g id="edge41" class="edge"><title>yap&#45;queue@1.service&#45;&gt;basic.target</title>
<path fill="none" stroke="black" d="M144.366,-144.847C189.401,-124.167 271.99,-88.9844 346.49,-72 531.984,-29.7115 756.681,-20.7286 872.371,-19.0939"/>
<polygon fill="black" stroke="black" points="872.589,-22.5915 882.544,-18.9652 872.501,-15.592 872.589,-22.5915"/>
</g>
<!-- &#45;.mount -->
<g id="node15" class="node"><title>&#45;.mount</title>
<ellipse fill="none" stroke="black" cx="745.49" cy="-90" rx="46.2923" ry="18"/>
<text text-anchor="middle" x="745.49" y="-86.3" font-family="Times,serif" font-size="14.00">&#45;.mount</text>
</g>
<!-- yap&#45;queue@1.service&#45;&gt;&#45;.mount -->
<g id="edge42" class="edge"><title>yap&#45;queue@1.service&#45;&gt;&#45;.mount</title>
<path fill="none" stroke="black" d="M188.838,-149.261C202.697,-147.367 217.005,-145.529 230.49,-144 417.528,-122.79 465.915,-132.953 652.49,-108 666.498,-106.127 681.603,-103.59 695.483,-101.049"/>
<polygon fill="black" stroke="black" points="696.153,-104.484 705.34,-99.2071 694.867,-97.6036 696.153,-104.484"/>
</g>
<!-- system&#45;yap\x2dqueue.slice -->
<g id="node16" class="node"><title>system&#45;yap\x2dqueue.slice</title>
<ellipse fill="none" stroke="black" cx="510.49" cy="-90" rx="133.477" ry="18"/>
<text text-anchor="middle" x="510.49" y="-86.3" font-family="Times,serif" font-size="14.00">system&#45;yapx2dqueue.slice</text>
</g>
<!-- yap&#45;queue@1.service&#45;&gt;system&#45;yap\x2dqueue.slice -->
<g id="edge43" class="edge"><title>yap&#45;queue@1.service&#45;&gt;system&#45;yap\x2dqueue.slice</title>
<path fill="none" stroke="#a8a8a8" d="M182.927,-148.324C250.229,-136.546 350.606,-118.98 422.493,-106.4"/>
<polygon fill="#a8a8a8" stroke="#a8a8a8" points="423.194,-109.83 432.441,-104.659 421.987,-102.935 423.194,-109.83"/>
</g>
<!-- yap&#45;queue@3.service&#45;&gt;shutdown.target -->
<g id="edge40" class="edge"><title>yap&#45;queue@3.service&#45;&gt;shutdown.target</title>
<path fill="none" stroke="red" d="M633.497,-178.544C652.4,-187.493 673.342,-200.13 688.49,-216 726.269,-255.578 751.43,-315.486 760.915,-349.971"/>
<polygon fill="red" stroke="red" points="757.549,-350.941 763.352,-359.806 764.344,-349.258 757.549,-350.941"/>
</g>
<!-- yap&#45;queue@3.service&#45;&gt;basic.target -->
<g id="edge37" class="edge"><title>yap&#45;queue@3.service&#45;&gt;basic.target</title>
<path fill="none" stroke="black" d="M609.539,-144.16C622.168,-133.91 638.453,-120.437 652.49,-108 669.903,-92.5722 669.856,-82.7454 690.49,-72 747.855,-42.127 820.545,-29.0824 874.306,-23.3913"/>
<polygon fill="black" stroke="black" points="874.851,-26.8543 884.455,-22.38 874.157,-19.8888 874.851,-26.8543"/>
</g>
<!-- yap&#45;queue@3.service&#45;&gt;&#45;.mount -->
<g id="edge38" class="edge"><title>yap&#45;queue@3.service&#45;&gt;&#45;.mount</title>
<path fill="none" stroke="black" d="M624.509,-144.941C649.154,-133.953 681.792,-119.4 706.957,-108.18"/>
<polygon fill="black" stroke="black" points="708.495,-111.327 716.203,-104.058 705.645,-104.933 708.495,-111.327"/>
</g>
<!-- yap&#45;queue@3.service&#45;&gt;system&#45;yap\x2dqueue.slice -->
<g id="edge39" class="edge"><title>yap&#45;queue@3.service&#45;&gt;system&#45;yap\x2dqueue.slice</title>
<path fill="none" stroke="#a8a8a8" d="M569.609,-144.055C559.813,-135.264 547.685,-124.38 536.969,-114.763"/>
<polygon fill="#a8a8a8" stroke="#a8a8a8" points="539.248,-112.106 529.468,-108.032 534.573,-117.316 539.248,-112.106"/>
</g>
<!-- yap&#45;queue@4.service&#45;&gt;shutdown.target -->
<g id="edge36" class="edge"><title>yap&#45;queue@4.service&#45;&gt;shutdown.target</title>
<path fill="none" stroke="red" d="M821.062,-180.07C814.549,-189.965 805.746,-203.008 800.49,-216 782.423,-260.659 776.005,-316.908 771.104,-349.723"/>
<polygon fill="red" stroke="red" points="767.6,-349.477 769.486,-359.903 774.513,-350.577 767.6,-349.477"/>
</g>
<!-- yap&#45;queue@4.service&#45;&gt;basic.target -->
<g id="edge33" class="edge"><title>yap&#45;queue@4.service&#45;&gt;basic.target</title>
<path fill="none" stroke="black" d="M841.964,-144.153C863.426,-119.173 903.807,-72.1723 928.511,-43.4179"/>
<polygon fill="black" stroke="black" points="931.173,-45.6909 935.035,-35.825 925.863,-41.1291 931.173,-45.6909"/>
</g>
<!-- yap&#45;queue@4.service&#45;&gt;&#45;.mount -->
<g id="edge34" class="edge"><title>yap&#45;queue@4.service&#45;&gt;&#45;.mount</title>
<path fill="none" stroke="black" d="M807.64,-144.055C796.78,-134.784 783.193,-123.186 771.496,-113.2"/>
<polygon fill="black" stroke="black" points="773.634,-110.423 763.755,-106.592 769.089,-115.747 773.634,-110.423"/>
</g>
<!-- yap&#45;queue@4.service&#45;&gt;system&#45;yap\x2dqueue.slice -->
<g id="edge35" class="edge"><title>yap&#45;queue@4.service&#45;&gt;system&#45;yap\x2dqueue.slice</title>
<path fill="none" stroke="#a8a8a8" d="M764.861,-147.17C713.732,-135.88 641.283,-119.882 586.774,-107.845"/>
<polygon fill="#a8a8a8" stroke="#a8a8a8" points="587.334,-104.384 576.814,-105.646 585.824,-111.22 587.334,-104.384"/>
</g>
<!-- yap&#45;queue@2.service&#45;&gt;shutdown.target -->
<g id="edge32" class="edge"><title>yap&#45;queue@2.service&#45;&gt;shutdown.target</title>
<path fill="none" stroke="red" d="M377.925,-179.411C406.089,-198.194 450.15,-229.286 490.49,-252 557.029,-289.466 576.619,-293.192 646.49,-324 671.95,-335.226 700.52,-347.287 723.145,-357.063"/>
<polygon fill="red" stroke="red" points="721.884,-360.331 732.451,-361.103 724.672,-353.91 721.884,-360.331"/>
</g>
<!-- yap&#45;queue@2.service&#45;&gt;basic.target -->
<g id="edge29" class="edge"><title>yap&#45;queue@2.service&#45;&gt;basic.target</title>
<path fill="none" stroke="black" d="M347.68,-143.651C346.613,-123.224 348.399,-89.8258 368.49,-72 405.475,-39.1852 724.056,-25.5947 873.143,-20.993"/>
<polygon fill="black" stroke="black" points="873.256,-24.4913 883.145,-20.6899 873.044,-17.4945 873.256,-24.4913"/>
</g>
<!-- yap&#45;queue@2.service&#45;&gt;&#45;.mount -->
<g id="edge30" class="edge"><title>yap&#45;queue@2.service&#45;&gt;&#45;.mount</title>
<path fill="none" stroke="black" d="M422.374,-148.412C483.766,-137.77 573.9,-122.056 652.49,-108 666.138,-105.559 680.904,-102.878 694.565,-100.381"/>
<polygon fill="black" stroke="black" points="695.553,-103.759 704.76,-98.5149 694.293,-96.8731 695.553,-103.759"/>
</g>
<!-- yap&#45;queue@2.service&#45;&gt;system&#45;yap\x2dqueue.slice -->
<g id="edge31" class="edge"><title>yap&#45;queue@2.service&#45;&gt;system&#45;yap\x2dqueue.slice</title>
<path fill="none" stroke="#a8a8a8" d="M386.427,-144.941C409.293,-134.999 438.87,-122.139 463.41,-111.47"/>
<polygon fill="#a8a8a8" stroke="#a8a8a8" points="465.113,-114.546 472.888,-107.349 462.322,-108.126 465.113,-114.546"/>
</g>
<!-- taiga.service&#45;&gt;shutdown.target -->
<g id="edge23" class="edge"><title>taiga.service&#45;&gt;shutdown.target</title>
<path fill="none" stroke="red" d="M862.956,-252.268C846.579,-277.25 811.543,-323.61 787.596,-352.233"/>
<polygon fill="red" stroke="red" points="784.672,-350.269 780.858,-360.153 790.004,-354.805 784.672,-350.269"/>
</g>
<!-- taiga.service&#45;&gt;nginx.service -->
<g id="edge21" class="edge"><title>taiga.service&#45;&gt;nginx.service</title>
<path fill="none" stroke="#a8a8a8" d="M928.234,-223.119C1001.04,-210.442 1127.22,-188.471 1205.2,-174.891"/>
<polygon fill="#a8a8a8" stroke="#a8a8a8" points="1206.15,-178.278 1215.41,-173.114 1204.95,-171.382 1206.15,-178.278"/>
</g>
<!-- taiga.service&#45;&gt;basic.target -->
<g id="edge19" class="edge"><title>taiga.service&#45;&gt;basic.target</title>
<path fill="none" stroke="black" d="M914.792,-219.507C933.549,-211.268 953.659,-198.639 964.49,-180 988.904,-137.987 973.446,-79.1826 960.872,-45.5012"/>
<polygon fill="black" stroke="black" points="964.018,-43.9348 957.11,-35.9013 957.5,-46.4889 964.018,-43.9348"/>
</g>
<!-- taiga.service&#45;&gt;system.slice -->
<g id="edge22" class="edge"><title>taiga.service&#45;&gt;system.slice</title>
<path fill="none" stroke="#a8a8a8" d="M904.199,-217.845C926.801,-207.328 957.531,-192.938 984.49,-180 1088.93,-129.878 1211.28,-69.3337 1272.84,-38.7446"/>
<polygon fill="#a8a8a8" stroke="#a8a8a8" points="1274.43,-41.8617 1281.83,-34.276 1271.32,-35.5936 1274.43,-41.8617"/>
</g>
<!-- taiga.service&#45;&gt;&#45;.mount -->
<g id="edge20" class="edge"><title>taiga.service&#45;&gt;&#45;.mount</title>
<path fill="none" stroke="black" d="M905.443,-218.185C920.946,-209.485 937.766,-196.848 946.49,-180 953.847,-165.792 956.256,-156.674 946.49,-144 928.591,-120.769 852.405,-105.673 799.155,-97.7467"/>
<polygon fill="black" stroke="black" points="799.565,-94.2696 789.167,-96.3031 798.564,-101.198 799.565,-94.2696"/>
</g>
<!-- nginx.service&#45;&gt;shutdown.target -->
<g id="edge48" class="edge"><title>nginx.service&#45;&gt;shutdown.target</title>
<path fill="none" stroke="red" d="M1292.71,-179.584C1308.27,-198.668 1324.46,-230.177 1308.49,-252 1255.94,-323.792 996.238,-357.28 855.087,-370.202"/>
<polygon fill="red" stroke="red" points="854.365,-366.753 844.718,-371.134 854.991,-373.725 854.365,-366.753"/>
</g>
<!-- nginx.service&#45;&gt;php7.1&#45;fpm.service -->
<g id="edge46" class="edge"><title>nginx.service&#45;&gt;php7.1&#45;fpm.service</title>
<path fill="none" stroke="#a8a8a8" d="M1292.3,-144.411C1305.35,-134.928 1323.03,-122.924 1338.96,-112.699"/>
<polygon fill="#a8a8a8" stroke="#a8a8a8" points="1341.01,-115.541 1347.58,-107.228 1337.26,-109.629 1341.01,-115.541"/>
</g>
<!-- nginx.service&#45;&gt;basic.target -->
<g id="edge45" class="edge"><title>nginx.service&#45;&gt;basic.target</title>
<path fill="none" stroke="black" d="M1239.12,-145.938C1179.64,-119.867 1057.63,-66.3932 992.572,-37.8814"/>
<polygon fill="black" stroke="black" points="993.583,-34.5034 983.019,-33.6949 990.773,-40.9147 993.583,-34.5034"/>
</g>
<!-- nginx.service&#45;&gt;system.slice -->
<g id="edge47" class="edge"><title>nginx.service&#45;&gt;system.slice</title>
<path fill="none" stroke="#a8a8a8" d="M1268.33,-144.016C1263.66,-125.661 1258.73,-95.8408 1267.49,-72 1271.4,-61.3527 1278.5,-51.3809 1285.93,-43.0232"/>
<polygon fill="#a8a8a8" stroke="#a8a8a8" points="1288.69,-45.193 1293.05,-35.5354 1283.62,-40.3681 1288.69,-45.193"/>
</g>
<!-- php7.1&#45;fpm.service&#45;&gt;shutdown.target -->
<g id="edge52" class="edge"><title>php7.1&#45;fpm.service&#45;&gt;shutdown.target</title>
<path fill="none" stroke="red" d="M1381.32,-108.157C1381.69,-139.803 1370.54,-208.132 1335.49,-252 1300.4,-295.922 1284.1,-304.182 1231.49,-324 1165.57,-348.832 974.059,-364.537 857.404,-371.951"/>
<polygon fill="red" stroke="red" points="857.161,-368.459 847.4,-372.578 857.599,-375.446 857.161,-368.459"/>
</g>
<!-- php7.1&#45;fpm.service&#45;&gt;nginx.service -->
<g id="edge49" class="edge"><title>php7.1&#45;fpm.service&#45;&gt;nginx.service</title>
<path fill="none" stroke="black" d="M1358.28,-107.88C1345.04,-117.48 1327.18,-129.593 1311.21,-139.827"/>
<polygon fill="black" stroke="black" points="1309.15,-136.986 1302.57,-145.291 1312.89,-142.901 1309.15,-136.986"/>
</g>
<!-- php7.1&#45;fpm.service&#45;&gt;basic.target -->
<g id="edge50" class="edge"><title>php7.1&#45;fpm.service&#45;&gt;basic.target</title>
<path fill="none" stroke="black" d="M1305.85,-77.2836C1224.78,-64.0232 1093.8,-42.6025 1015.24,-29.7535"/>
<polygon fill="black" stroke="black" points="1015.42,-26.2362 1004.98,-28.0762 1014.29,-33.1444 1015.42,-26.2362"/>
</g>
<!-- php7.1&#45;fpm.service&#45;&gt;system.slice -->
<g id="edge51" class="edge"><title>php7.1&#45;fpm.service&#45;&gt;system.slice</title>
<path fill="none" stroke="#a8a8a8" d="M1361.76,-72.055C1353.77,-63.4567 1343.93,-52.8566 1335.14,-43.3974"/>
<polygon fill="#a8a8a8" stroke="#a8a8a8" points="1337.45,-40.7354 1328.08,-35.789 1332.32,-45.4986 1337.45,-40.7354"/>
</g>
<!-- multi&#45;user.target -->
<g id="node11" class="node"><title>multi&#45;user.target</title>
<ellipse fill="none" stroke="black" cx="1430.49" cy="-378" rx="89.0842" ry="18"/>
<text text-anchor="middle" x="1430.49" y="-374.3" font-family="Times,serif" font-size="14.00">multi&#45;user.target</text>
</g>
<!-- multi&#45;user.target&#45;&gt;postgresql.service -->
<g id="edge11" class="edge"><title>multi&#45;user.target&#45;&gt;postgresql.service</title>
<path fill="none" stroke="#a8a8a8" d="M1361.53,-366.596C1278.27,-354.036 1138.37,-332.93 1049.34,-319.499"/>
<polygon fill="#a8a8a8" stroke="#a8a8a8" points="1049.69,-316.012 1039.28,-317.981 1048.65,-322.934 1049.69,-316.012"/>
</g>
<!-- multi&#45;user.target&#45;&gt;nginx.service -->
<g id="edge10" class="edge"><title>multi&#45;user.target&#45;&gt;nginx.service</title>
<path fill="none" stroke="#a8a8a8" d="M1425.19,-359.842C1414.86,-328.489 1389.55,-261.032 1350.49,-216 1339.67,-203.53 1325.3,-192.603 1311.89,-183.96"/>
<polygon fill="#a8a8a8" stroke="#a8a8a8" points="1313.62,-180.912 1303.28,-178.617 1309.93,-186.861 1313.62,-180.912"/>
</g>
<!-- multi&#45;user.target&#45;&gt;php7.1&#45;fpm.service -->
<g id="edge12" class="edge"><title>multi&#45;user.target&#45;&gt;php7.1&#45;fpm.service</title>
<path fill="none" stroke="#a8a8a8" d="M1431.01,-359.872C1431.72,-320.68 1430.71,-221.853 1406.49,-144 1403.56,-134.586 1398.87,-124.939 1394.11,-116.5"/>
<polygon fill="#a8a8a8" stroke="#a8a8a8" points="1397.11,-114.698 1389,-107.885 1391.09,-118.271 1397.11,-114.698"/>
</g>
</g>
</svg>
